<svg xmlns="http://www.w3.org/2000/svg" viewBox="0 0 512 512">
  <path fill="#EA4335" d="M64 113.1L0 168v256c0 26.5 21.5 48 48 48h80V224L64 113.1z"/>
  <path fill="#34A853" d="M368 472h80c26.5 0 48-21.5 48-48V168l-64-54.9L368 224v248z"/>
  <path fill="#4285F4" d="M368 72v152L256 296 144 224V72l112 80 112-80z"/>
  <path fill="#FBBC04" d="M0 168l64-54.9L144 224 0 320V168z"/>
  <path fill="#C5221F" d="M512 168v152l-144 96V224l144-56z"/>
  <path fill="#F1F3F4" d="M144 224v248H48c-26.5 0-48-21.5-48-48V320l144-96z"/>
</svg>
